<svg
    xmlns="http://www.w3.org/2000/svg"
    viewBox="0 0 36 36"
    id="vector">
    <path
        id="path"
        d="M 18 18 M 0 18 C 0 13.228 1.898 8.646 5.272 5.272 C 8.646 1.898 13.228 0 18 0 C 22.772 0 27.354 1.898 30.728 5.272 C 34.102 8.646 36 13.228 36 18 C 36 22.772 34.102 27.354 30.728 30.728 C 27.354 34.102 22.772 36 18 36 C 13.228 36 8.646 34.102 5.272 30.728 C 1.898 27.354 0 22.772 0 18"
        fill="#9baff7"/>
    <path
        id="path_1"
        d="M 27.83 19.085 L 12.26 26.867 C 11.21 27.391 10.119 26.266 10.632 25.24 C 10.632 25.24 12.561 21.343 13.092 20.322 C 13.623 19.301 14.231 19.124 19.874 18.395 C 20.083 18.368 20.253 18.21 20.253 18 C 20.253 17.79 20.083 17.632 19.874 17.605 C 14.231 16.876 13.623 16.699 13.092 15.678 C 12.561 14.658 10.632 10.76 10.632 10.76 C 10.119 9.734 11.21 8.609 12.26 9.133 L 27.83 16.915 C 28.725 17.362 28.725 18.638 27.83 19.085 Z"
        fill="#000000"/>
</svg>
