<?xml version="1.0" ?>
<svg id="Icons" viewBox="0 0 24 24" xmlns="http://www.w3.org/2000/svg">
  <!-- Rounded black background -->
  <rect width="24" height="24" fill="black" rx="20" />
  <defs>
    <style>
      .cls-1 { fill: white; }
    </style>
  </defs>
  <!-- White arrow -->
  <path class="cls-1" d="M12,1A11,11,0,1,0,23,12,11,11,0,0,0,12,1Zm4.707,9.707a1,1,0,0,1-1.414,0L13,8.414V18a1,1,0,0,1-2,0V8.414L8.707,10.707A1,1,0,1,1,7.293,9.293l4-4a1,1,0,0,1,1.414,0l4,4A1,1,0,0,1,16.707,10.707Z"/>
</svg>
